<svg width="26" height="26" viewBox="0 0 26 26" fill="none" xmlns="http://www.w3.org/2000/svg">
<path fill-rule="evenodd" clip-rule="evenodd" d="M18.0071 16.4988L25.4437 23.9354C25.652 24.1437 25.652 24.4813 25.4438 24.6896L24.6897 25.4438C24.4813 25.652 24.1437 25.652 23.9354 25.4438L16.4988 18.0072C14.7575 19.4176 12.5437 20.2667 10.1334 20.2667C4.54585 20.2667 0 15.7208 0 10.1334C0 4.54585 4.5458 0 10.1333 0C15.7208 0 20.2666 4.54585 20.2666 10.1334C20.2666 12.5437 19.4176 14.7575 18.0071 16.4988ZM2.13335 10.1334C2.13335 14.5448 5.7219 18.1334 10.1334 18.1334C14.5448 18.1334 18.1334 14.5448 18.1334 10.1334C18.1334 5.7219 14.5448 2.13335 10.1334 2.13335C5.7219 2.13335 2.13335 5.7219 2.13335 10.1334Z" fill="white"/>
</svg>
